# xmcd
#
# Track frame offsets:
#	150
#	12990
#	25098
#	39790
#	56092
#	67095
#	79114
#	90167
#	102855
#	116339
#	128533
#	140889
#
# Disc length: 2122 seconds
#
# Revision: 1
# Processed by: cddbd v1.5.2PL0 Copyright (c) Steve Scherf et al.
# Submitted via: audiograbber 1.83.01
#
DISCID=9108480c
DTITLE=DOMINGUINHOS - AQUI TÁ FICANDO BOM
DYEAR=1900
DGENRE=FORRÓ
TTITLE0=TODO ANO
TTITLE1=ILUSÃO
TTITLE2=GONZAGA CORAÇÃO
TTITLE3=CHORINHO PRA ELE
TTITLE4=INGRATIDÃO
TTITLE5=NÃO FAZ ASSIM
TTITLE6=PRA LÁ DE BOM
TTITLE7=RETRATO REDONDINHO
TTITLE8=VÁRIOS CAMINHOS(GUADALUPE)
TTITLE9=FUGA PRO NORDESTE
TTITLE10=UM APERTO DE MÃO
TTITLE11=A VERDADE DÓI
EXTD=
EXTT0=
EXTT1=
EXTT2=
EXTT3=
EXTT4=
EXTT5=
EXTT6=
EXTT7=
EXTT8=
EXTT9=
EXTT10=
EXTT11=
PLAYORDER=
